<svg height="480pt" viewBox="-16 0 480 480" width="480pt" xmlns="http://www.w3.org/2000/svg"><path d="m216 88h16v32h-16zm0 0" fill="#857970"/><path d="m304 192h64v32h-64zm0 0" fill="#e087a6"/><path d="m80 192h64v32h-64zm0 0" fill="#b64f86"/><path d="m128 352v-144c0-53.015625 42.984375-96 96-96s96 42.984375 96 96v144" fill="#b64f86"/><path d="m128 327.390625c3.96875.320313 7.953125.609375 12 .609375 81.734375 0 148-66.265625 148-148 0-17.832031-3.3125-34.855469-9.097656-50.6875-15.566406-10.878906-34.46875-17.3125-54.902344-17.3125-53.015625 0-96 42.984375-96 96zm0 0" fill="#e087a6"/><path d="m168 184h32v32h-32zm0 0" fill="#e8eff4"/><path d="m248 184h32v32h-32zm0 0" fill="#e8eff4"/><g fill="#857970"><path d="m216 320h16v24h-16zm0 0"/><path d="m248 320h16v24h-16zm0 0"/><path d="m280 320h16v24h-16zm0 0"/><path d="m312 320h16v24h-16zm0 0"/><path d="m344 320h16v32h-16zm0 0"/><path d="m392 392h32v16h-32zm0 0"/><path d="m387.582031 369.363281 24.003907-16.003906 8.875 13.316406-24.003907 16zm0 0"/><path d="m387.582031 430.632812 8.875-13.3125 24.003907 16-8.875 13.316407zm0 0"/><path d="m368.832031 356.429688 15.996094-32 14.3125 7.15625-16 31.996093zm0 0"/><path d="m216 456h16v24h-16zm0 0"/><path d="m248 456h16v24h-16zm0 0"/><path d="m280 456h16v24h-16zm0 0"/><path d="m312 456h16v24h-16zm0 0"/><path d="m344 448h16v32h-16zm0 0"/><path d="m368.828125 443.570312 14.308594-7.152343 16 31.996093-14.308594 7.15625zm0 0"/><path d="m184 320h16v24h-16zm0 0"/><path d="m152 320h16v24h-16zm0 0"/><path d="m120 320h16v24h-16zm0 0"/><path d="m88 320h16v32h-16zm0 0"/><path d="m24 392h32v16h-32zm0 0"/><path d="m27.578125 366.652344 8.875-13.3125 24.003906 16-8.875 13.3125zm0 0"/><path d="m27.5625 433.367188 24.003906-16.003907 8.878906 13.316407-24.007812 16zm0 0"/><path d="m48.839844 331.570312 14.308594-7.15625 16 32-14.3125 7.152344zm0 0"/><path d="m184 456h16v24h-16zm0 0"/><path d="m152 456h16v24h-16zm0 0"/><path d="m120 456h16v24h-16zm0 0"/><path d="m88 448h16v32h-16zm0 0"/><path d="m48.832031 468.417969 15.996094-32 14.3125 7.15625-16 32zm0 0"/></g><path d="m416 264v-16c0-26.472656-21.527344-48-48-48v16c17.648438 0 32 14.351562 32 32v16c-17.648438 0-32 14.351562-32 32 0 2.121094.839844 4.160156 2.34375 5.65625l16 16 11.3125-11.3125-13.367188-13.367188c1.414063-7.382812 7.917969-12.976562 15.710938-12.976562h16c7.792969 0 14.296875 5.59375 15.710938 12.976562l-13.367188 13.367188 11.3125 11.3125 16-16c1.503906-1.496094 2.34375-3.535156 2.34375-5.65625 0-17.648438-14.351562-32-32-32zm0 0" fill="#b64f86"/><path d="m48 168v-16c17.648438 0 32-14.351562 32-32 0-2.121094-.839844-4.160156-2.34375-5.65625l-16-16-11.3125 11.3125 13.367188 13.367188c-1.414063 7.382812-7.917969 12.976562-15.710938 12.976562h-16c-7.792969 0-14.296875-5.59375-15.710938-12.976562l13.367188-13.367188-11.3125-11.3125-16 16c-1.503906 1.496094-2.34375 3.535156-2.34375 5.65625 0 17.648438 14.351562 32 32 32v16c0 26.472656 21.527344 48 48 48v-16c-17.648438 0-32-14.351562-32-32zm0 0" fill="#e087a6"/><path d="m160 240h128v16h-128zm0 0" fill="#e8eff4"/><path d="m344 344h-240c-30.929688 0-56 25.070312-56 56s25.070312 56 56 56h240c30.929688 0 56-25.070312 56-56s-25.070312-56-56-56zm0 0" fill="#c18e59"/><path d="m128 400c0 13.253906-10.746094 24-24 24s-24-10.746094-24-24 10.746094-24 24-24 24 10.746094 24 24zm0 0" fill="#fff"/><path d="m208 400c0 13.253906-10.746094 24-24 24s-24-10.746094-24-24 10.746094-24 24-24 24 10.746094 24 24zm0 0" fill="#fff"/><path d="m288 400c0 13.253906-10.746094 24-24 24s-24-10.746094-24-24 10.746094-24 24-24 24 10.746094 24 24zm0 0" fill="#fff"/><path d="m368 400c0 13.253906-10.746094 24-24 24s-24-10.746094-24-24 10.746094-24 24-24 24 10.746094 24 24zm0 0" fill="#fff"/><path d="m224 96c-26.472656 0-48-21.527344-48-48s21.527344-48 48-48v16c-17.648438 0-32 14.351562-32 32s14.351562 32 32 32 32-14.351562 32-32h16c0 26.472656-21.527344 48-48 48zm0 0" fill="#b64f86"/></svg>