<svg height="496pt" viewBox="-24 0 496 496" width="496pt" xmlns="http://www.w3.org/2000/svg"><path d="m344 360h-240c-30.929688 0-56 25.070312-56 56s25.070312 56 56 56h240c30.929688 0 56-25.070312 56-56s-25.070312-56-56-56zm0 0" fill="#f0d365"/><g fill="#fff"><path d="m128 416c0 13.253906-10.746094 24-24 24s-24-10.746094-24-24 10.746094-24 24-24 24 10.746094 24 24zm0 0"/><path d="m208 416c0 13.253906-10.746094 24-24 24s-24-10.746094-24-24 10.746094-24 24-24 24 10.746094 24 24zm0 0"/><path d="m288 416c0 13.253906-10.746094 24-24 24s-24-10.746094-24-24 10.746094-24 24-24 24 10.746094 24 24zm0 0"/><path d="m368 416c0 13.253906-10.746094 24-24 24s-24-10.746094-24-24 10.746094-24 24-24 24 10.746094 24 24zm0 0"/></g><path d="m304 200h64v32h-64zm0 0" fill="#e39854"/><path d="m80 200h64v32h-64zm0 0" fill="#e39854"/><path d="m128 360v-144c0-53.015625 42.984375-96 96-96s96 42.984375 96 96v144" fill="#b64f86"/><path d="m128 335.390625c3.96875.320313 7.953125.609375 12 .609375 81.734375 0 148-66.265625 148-148 0-17.832031-3.3125-34.855469-9.097656-50.6875-15.566406-10.878906-34.46875-17.3125-54.902344-17.3125-53.015625 0-96 42.984375-96 96zm0 0" fill="#e087a6"/><path d="m168 192h32v32h-32zm0 0" fill="#e8eff4"/><path d="m248 192h32v32h-32zm0 0" fill="#e8eff4"/><path d="m344 480h-240c-35.289062 0-64-28.710938-64-64s28.710938-64 64-64h240c35.289062 0 64 28.710938 64 64s-28.710938 64-64 64zm-240-112c-26.472656 0-48 21.527344-48 48s21.527344 48 48 48h240c26.472656 0 48-21.527344 48-48s-21.527344-48-48-48zm0 0"/><path d="m104 448c-17.648438 0-32-14.351562-32-32s14.351562-32 32-32 32 14.351562 32 32-14.351562 32-32 32zm0-48c-8.824219 0-16 7.175781-16 16s7.175781 16 16 16 16-7.175781 16-16-7.175781-16-16-16zm0 0"/><path d="m184 448c-17.648438 0-32-14.351562-32-32s14.351562-32 32-32 32 14.351562 32 32-14.351562 32-32 32zm0-48c-8.824219 0-16 7.175781-16 16s7.175781 16 16 16 16-7.175781 16-16-7.175781-16-16-16zm0 0"/><path d="m264 448c-17.648438 0-32-14.351562-32-32s14.351562-32 32-32 32 14.351562 32 32-14.351562 32-32 32zm0-48c-8.824219 0-16 7.175781-16 16s7.175781 16 16 16 16-7.175781 16-16-7.175781-16-16-16zm0 0"/><path d="m344 448c-17.648438 0-32-14.351562-32-32s14.351562-32 32-32 32 14.351562 32 32-14.351562 32-32 32zm0-48c-8.824219 0-16 7.175781-16 16s7.175781 16 16 16 16-7.175781 16-16-7.175781-16-16-16zm0 0"/><path d="m216 336h16v24h-16zm0 0"/><path d="m248 336h16v24h-16zm0 0"/><path d="m280 336h16v24h-16zm0 0"/><path d="m344 336h16v24h-16zm0 0"/><path d="m400 408h24v16h-24zm0 0"/><path d="m387.582031 385.363281 24.003907-16 8.875 13.3125-24.003907 16zm0 0"/><path d="m387.582031 446.632812 8.875-13.3125 24.003907 16-8.875 13.316407zm0 0"/><path d="m368.828125 372.429688 16-32 14.3125 7.15625-16 31.996093zm0 0"/><path d="m216 472h16v24h-16zm0 0"/><path d="m248 472h16v24h-16zm0 0"/><path d="m280 472h16v24h-16zm0 0"/><path d="m312 472h16v24h-16zm0 0"/><path d="m344 472h16v24h-16zm0 0"/><path d="m368.828125 459.570312 14.308594-7.152343 16 31.996093-14.308594 7.15625zm0 0"/><path d="m184 336h16v24h-16zm0 0"/><path d="m152 336h16v24h-16zm0 0"/><path d="m88 336h16v24h-16zm0 0"/><path d="m24 408h24v16h-24zm0 0"/><path d="m27.578125 382.652344 8.875-13.3125 24.007813 16-8.875 13.3125zm0 0"/><path d="m27.5625 449.367188 24.003906-16.003907 8.878906 13.316407-24.007812 16zm0 0"/><path d="m48.835938 347.570312 14.3125-7.15625 16 32-14.3125 7.152344zm0 0"/><path d="m184 472h16v24h-16zm0 0"/><path d="m152 472h16v24h-16zm0 0"/><path d="m120 472h16v24h-16zm0 0"/><path d="m88 472h16v24h-16zm0 0"/><path d="m48.832031 484.417969 15.996094-32 14.3125 7.15625-16 32zm0 0"/><path d="m224 96c-26.472656 0-48-21.527344-48-48s21.527344-48 48-48v16c-17.648438 0-32 14.351562-32 32s14.351562 32 32 32 32-14.351562 32-32h16c0 26.472656-21.527344 48-48 48zm0 0"/><path d="m328 360h-16v-144c0-48.519531-39.480469-88-88-88s-88 39.480469-88 88v144h-16v-144c0-57.34375 46.65625-104 104-104s104 46.65625 104 104zm0 0"/><path d="m368 240h-48v-16h40v-16h-40v-16h48c4.414062 0 8 3.585938 8 8v32c0 4.414062-3.585938 8-8 8zm0 0"/><path d="m429.65625 325.65625-11.3125-11.3125 13.367188-13.367188c-1.414063-7.382812-7.917969-12.976562-15.710938-12.976562h-16c-7.792969 0-14.296875 5.59375-15.710938 12.976562l13.367188 13.367188-11.3125 11.3125-16-16c-1.503906-1.496094-2.34375-3.535156-2.34375-5.65625 0-17.648438 14.351562-32 32-32h16c17.648438 0 32 14.351562 32 32 0 2.121094-.839844 4.160156-2.34375 5.65625zm0 0"/><path d="m416 280h-16v-24c0-17.648438-14.351562-32-32-32v-16c26.472656 0 48 21.527344 48 48zm0 0"/><path d="m128 240h-48c-4.414062 0-8-3.585938-8-8v-32c0-4.414062 3.585938-8 8-8h48v16h-40v16h40zm0 0"/><path d="m48 160h-16c-17.648438 0-32-14.351562-32-32 0-2.121094.839844-4.160156 2.34375-5.65625l16-16 11.3125 11.3125-13.367188 13.367188c1.414063 7.382812 7.917969 12.976562 15.710938 12.976562h16c7.792969 0 14.296875-5.59375 15.710938-12.976562l-13.367188-13.367188 11.3125-11.3125 16 16c1.503906 1.496094 2.34375 3.535156 2.34375 5.65625 0 17.648438-14.351562 32-32 32zm0 0"/><path d="m80 224c-26.472656 0-48-21.527344-48-48v-24h16v24c0 17.648438 14.351562 32 32 32zm0 0"/><path d="m216 88h16v32h-16zm0 0"/><path d="m200 232h-32c-4.414062 0-8-3.585938-8-8v-32c0-4.414062 3.585938-8 8-8h32c4.414062 0 8 3.585938 8 8v32c0 4.414062-3.585938 8-8 8zm-24-16h16v-16h-16zm0 0"/><path d="m280 232h-32c-4.414062 0-8-3.585938-8-8v-32c0-4.414062 3.585938-8 8-8h32c4.414062 0 8 3.585938 8 8v32c0 4.414062-3.585938 8-8 8zm-24-16h16v-16h-16zm0 0"/><path d="m160 248h128v16h-128zm0 0"/></svg>